<svg xmlns="http://www.w3.org/2000/svg" version="1.1" xmlns:xlink="http://www.w3.org/1999/xlink" xmlns:svgjs="http://svgjs.dev/svgjs" width="590" height="576"><svg xmlns="http://www.w3.org/2000/svg" viewBox="0 0 590 576" width="590" height="576"><defs></defs><g transform="matrix(1,0,0,1,-192,-147)">
<g transform="matrix(1,0,0,1,192,147)">
	<g transform="matrix(1,0,0,1,512,512)">
		<g transform="matrix(1,0,0,1,-216.5,-223)">
			<g>
				<path d="M-32.000000,177.500000C-42.670013,173.859985 -63.559998,181.210022 -47.750000,191.250000 C-38.899994,197.780029 -28.029999,201.119995 -17.010010,201.510010 C-7.640015,206.099976 13.039978,197.969971 -1.769989,188.270020 C-10.940002,182.349976 -21.910004,179.770020 -32.000000,177.500000 C-32.000000,177.500000 -32.000000,177.500000 -32.000000,177.500000 Z" transform="" fill="#000000" fill-opacity="0" stroke="#0a242f" stroke-width="0.30000001192092896"></path>
			</g>
			<g>
				<path d="M618.000000,295.000000C615.059998,296.570007 608.869995,296.709991 606.000000,295.000000 C575.020020,289.350006 546.650024,273.809998 514.000000,274.000000 C480.720001,272.980011 449.029999,279.609985 419.700012,292.700012 C338.040009,329.829987 294.250000,420.510010 295.000000,507.000000 C295.000000,512.330017 295.000000,517.669983 295.000000,523.000000 C295.489990,567.950012 306.380005,611.130005 328.700012,649.309998 C382.309998,750.719971 526.690002,780.539978 618.250000,716.250000 C628.530029,709.940002 639.059998,694.150024 652.299988,702.700012 C665.210022,709.750000 666.390015,724.659973 671.750000,736.250000 C691.010010,746.859985 685.159973,714.280029 686.000000,703.000000 C686.000000,667.669983 686.000000,632.330017 686.000000,597.000000 C679.669983,597.000000 673.330017,597.000000 667.000000,597.000000 C663.179993,643.750000 630.830017,686.070007 590.229980,709.229980 C547.989990,733.159973 484.279999,739.659973 449.299988,698.700012 C386.410004,612.030029 389.720001,488.309998 416.070007,388.070007 C429.279999,344.950012 461.500000,296.450012 512.000000,296.000000 C514.609985,294.440002 520.460022,294.279999 523.000000,296.000000 C556.859985,296.619995 587.549988,317.820007 607.000000,345.000000 C626.349976,330.739990 645.719971,315.970001 668.000000,307.000000 C668.000000,290.329987 668.000000,273.670013 668.000000,257.000000 C661.669983,257.000000 655.330017,257.000000 649.000000,257.000000 C653.479980,276.410004 636.960022,295.049988 618.000000,295.000000 C618.000000,295.000000 618.000000,295.000000 618.000000,295.000000 Z" transform="matrix(1,0,0,1,-512,-512.5)" fill="#06222e"></path>
			</g>
			<g>
				<path d="M512.000000,296.000000C515.669983,296.000000 519.330017,296.000000 523.000000,296.000000 C520.460022,294.279999 514.609985,294.440002 512.000000,296.000000 C512.000000,296.000000 512.000000,296.000000 512.000000,296.000000 Z" transform="matrix(1,0,0,1,-512,-512.5)" fill="#707d85"></path>
			</g>
			<g>
				<path d="M618.000000,295.000000C614.000000,295.000000 610.000000,295.000000 606.000000,295.000000 C608.869995,296.709991 615.059998,296.570007 618.000000,295.000000 C618.000000,295.000000 618.000000,295.000000 618.000000,295.000000 Z" transform="matrix(1,0,0,1,-512,-512.5)" fill="#808f95"></path>
			</g>
			<g>
				<path d="M520.000000,536.000000C520.000000,543.330017 520.000000,550.669983 520.000000,558.000000 C519.520020,560.219971 520.719971,562.010010 521.000000,564.000000 C565.130005,479.149994 612.719971,373.059998 712.330017,340.329987 C730.210022,340.350006 725.820007,317.769989 728.000000,305.000000 C662.190002,311.170013 605.869995,356.019989 566.299988,408.299988 C551.549988,423.100006 567.679993,446.899994 557.000000,463.000000 C551.909973,453.660004 553.609985,440.690002 551.000000,430.000000 C528.549988,460.320007 520.630005,498.149994 520.000000,536.000000 C520.000000,536.000000 520.000000,536.000000 520.000000,536.000000 Z" transform="matrix(1,0,0,1,-512,-512.5)" fill="#06222d"></path>
			</g>
			<g>
				<path d="M635.000000,453.000000C634.159973,454.109985 632.539978,455.040009 631.000000,455.000000 C631.599976,453.179993 633.559998,452.850006 635.000000,452.000000 C648.719971,443.079987 664.650024,438.579987 679.700012,433.700012 C695.559998,406.779999 712.049988,379.279999 720.000000,349.000000 C619.010010,376.000000 572.010010,483.309998 532.000000,569.000000 C556.510010,564.549988 581.679993,549.989990 607.320007,560.659973 C615.510010,555.799988 618.599976,541.210022 623.000000,532.000000 C605.440002,529.049988 587.270020,531.830017 571.000000,537.000000 C587.789978,525.570007 609.070007,518.359985 630.000000,522.000000 C633.359985,512.130005 639.729980,503.339996 644.000000,494.000000 C622.570007,493.269989 603.020020,500.329987 584.000000,508.000000 C602.409973,493.320007 626.150024,485.660004 650.000000,485.000000 C655.799988,471.339996 665.710022,459.380005 672.000000,446.000000 C658.909973,445.450012 647.119995,449.989990 635.000000,453.000000 C635.000000,453.000000 635.000000,453.000000 635.000000,453.000000 Z" transform="matrix(1,0,0,1,-512,-512.5)" fill="#06212d"></path>
			</g>
			<g>
				<path d="M635.000000,453.000000C635.000000,453.000000 634.789978,452.109985 635.000000,452.000000 C633.559998,452.850006 631.599976,453.179993 631.000000,455.000000 C632.539978,455.040009 634.159973,454.109985 635.000000,453.000000 C635.000000,453.000000 635.000000,453.000000 635.000000,453.000000 Z" transform="matrix(1,0,0,1,-512,-512.5)" fill="#738b97"></path>
			</g>
			<g>
				<path d="M295.000000,523.000000C295.000000,517.669983 295.000000,512.330017 295.000000,507.000000 C293.299988,511.190002 293.390015,518.739990 295.000000,523.000000 C295.000000,523.000000 295.000000,523.000000 295.000000,523.000000 Z" transform="matrix(1,0,0,1,-512,-512.5)" fill="#899499"></path>
			</g>
			<g>
				<path d="M520.000000,558.000000C520.000000,550.669983 520.000000,543.330017 520.000000,536.000000 C518.309998,542.190002 518.359985,551.739990 520.000000,558.000000 C520.000000,558.000000 520.000000,558.000000 520.000000,558.000000 Z" transform="matrix(1,0,0,1,-512,-512.5)" fill="#67757b"></path>
			</g>
			<g>
				<path d="M514.000000,563.000000C502.529999,577.940002 493.859985,595.739990 478.000000,608.000000 C482.260010,629.299988 481.170013,652.429993 483.000000,674.000000 C486.269989,663.340027 491.100006,653.210022 494.690002,642.690002 C499.220001,632.159973 504.000000,622.659973 501.250000,611.250000 C511.720001,596.659973 522.219971,622.909973 506.000000,622.000000 C500.350006,641.760010 490.980011,660.340027 485.000000,680.000000 C494.320007,671.739990 501.010010,661.049988 510.750000,652.750000 C517.239990,641.390015 536.070007,638.929993 535.000000,625.000000 C534.559998,608.799988 538.330017,593.650024 540.000000,578.000000 C529.169983,579.349976 515.919983,574.539978 514.000000,563.000000 C514.000000,563.000000 514.000000,563.000000 514.000000,563.000000 Z" transform="matrix(1,0,0,1,-512,-512.5)" fill="#08232e"></path>
			</g>
			<g>
				<path d="M480.000000,690.000000C469.329987,686.359985 448.440002,693.710022 464.250000,703.750000 C473.100006,710.280029 483.970001,713.619995 494.989990,714.010010 C504.359985,718.599976 525.039978,710.469971 510.230011,700.770020 C501.059998,694.849976 490.089996,692.270020 480.000000,690.000000 C480.000000,690.000000 480.000000,690.000000 480.000000,690.000000 Z" transform="matrix(1,0,0,1,-512,-512.5)" fill="#0a242f"></path>
			</g>
			<g>
				<path d="M681.000000,755.000000C667.150024,753.770020 663.969971,778.109985 677.000000,782.000000 C691.390015,782.440002 692.020020,760.669983 681.000000,755.000000 C681.000000,755.000000 681.000000,755.000000 681.000000,755.000000 Z" transform="matrix(1,0,0,1,-512,-512.5)" fill="#08222d"></path>
			</g>
		</g>
	</g>
</g></g></svg><style>@media (prefers-color-scheme: light) { :root { filter: none; } }
@media (prefers-color-scheme: dark) { :root { filter: none; } }
</style></svg>